<?xml version="1.0" encoding="UTF-8"?>
<svg width="545px" height="380px" viewBox="0 0 545 380" version="1.1" xmlns="http://www.w3.org/2000/svg" xmlns:xlink="http://www.w3.org/1999/xlink">
    <!-- Generator: Sketch 49.1 (51147) - http://www.bohemiancoding.com/sketch -->
    <title>Page 1</title>
    <desc>Created with Sketch.</desc>
    <defs></defs>
    <g id="Page-1" stroke="none" stroke-width="1" fill="none" fill-rule="evenodd">
        <g id="Access-denied" transform="translate(-448.000000, -147.000000)">
            <g id="Page-1" transform="translate(448.000000, 147.000000)">
                <path d="M512.684825,118.102411 C512.480992,118.233171 512.298121,118.383437 512.10007,118.519977 L512.080554,118.488913 L360.498996,215.509559 C355.709646,218.574122 349.341675,217.17838 346.274062,212.392259 C343.207172,207.605414 336.839202,206.209673 332.049851,209.275681 L300.898114,229.214122 C297.805926,231.193589 293.694573,230.291992 291.714792,227.202144 C289.735011,224.112297 290.636357,220.002373 293.727822,218.023627 L394.481264,153.536327 C404.160435,147.34146 406.982292,134.477087 400.784182,124.802981 C394.585349,115.128875 381.714241,112.308494 372.03507,118.504084 L346.433804,134.889597 C341.973333,137.744654 336.042663,136.444996 333.186834,131.987582 C330.330282,127.529445 331.631344,121.601878 336.091092,118.746821 L412.289898,69.9753384 L412.270382,69.9449962 C412.477106,69.8221825 412.690336,69.719597 412.894168,69.5888365 C422.574062,63.3932471 425.395196,50.5288745 419.197086,40.8547681 C412.998976,31.181384 400.127146,28.3610038 390.448698,34.5558707 C390.244142,34.6866312 390.061993,34.8368973 389.863943,34.9734373 L389.844427,34.9430951 L231.655647,136.191422 C225.04192,140.42416 216.247471,138.496707 212.011794,131.887163 C207.776841,125.276897 209.705302,116.487049 216.318306,112.254312 L250.591145,90.3183422 L250.578134,90.2966692 C250.719082,90.2135894 250.864367,90.1427909 251.004593,90.0532091 C257.617597,85.8204715 259.545336,77.0306236 255.310382,70.4210798 C251.074706,63.8108137 242.280256,61.8833612 235.667252,66.1168213 C235.527749,66.2056806 235.402703,66.3082662 235.267537,66.4014601 L235.254527,66.3805095 L101.05442,152.275681 C94.4399708,156.508418 92.5122321,165.298266 96.7479085,171.908532 C100.982862,178.518076 99.0544005,187.308646 92.4413966,191.541384 L58.1685584,213.478076 L58.181569,213.498304 C58.0406207,213.582829 57.8953355,213.652905 57.7551101,213.741764 C51.1421061,217.975224 49.2143674,226.765072 53.449321,233.375338 C57.6849973,239.984882 66.4794469,241.911612 73.0924509,237.678875 C73.2319536,237.590015 73.357,237.486707 73.4921658,237.394236 L73.5051764,237.415186 L170.542643,175.306137 C173.507617,173.409027 177.449832,174.272335 179.347935,177.235757 L179.348658,177.235757 C181.246761,180.199179 180.383001,184.139331 177.418028,186.037163 L131.583094,215.373019 L131.596828,215.39397 C131.455156,215.477772 131.309871,215.547848 131.170369,215.63743 C124.556642,219.87089 122.628903,228.660738 126.86458,235.270281 C131.09881,241.879825 139.893983,243.807278 146.506987,239.57454 C146.647212,239.484958 146.771536,239.382373 146.906702,239.289901 L146.920435,239.310129 L198.122968,206.53838 L198.357159,206.903209 L293.512424,145.999179 C297.972172,143.144844 303.902842,144.443779 306.759394,148.901916 C309.615946,153.360053 308.315607,159.28762 303.855137,162.141954 L175.627623,244.21473 L175.647139,244.245072 C175.440415,244.367886 175.227186,244.470471 175.023353,244.601232 C165.344182,250.796099 162.522325,263.661194 168.720435,273.3353 C174.918545,283.008684 187.790375,285.829065 197.468824,279.634198 C197.673379,279.503437 197.855528,279.353171 198.054301,279.216631 L198.073094,279.246973 L228.025687,260.076479 C231.117153,258.097734 235.229228,258.998608 237.209009,262.088456 C239.18879,265.178304 238.287444,269.288228 235.195979,271.266973 L126.787962,340.653095 L126.807477,340.683437 C126.600753,340.806251 126.387524,340.909559 126.183691,341.039597 C116.50452,347.234464 113.682663,360.099559 119.881496,369.773665 C126.079606,379.447049 138.950714,382.268152 148.629885,376.072563 C148.833718,375.942525 149.016589,375.792259 149.214639,375.654996 L149.234155,375.686061 L300.816436,278.666137 C305.605064,275.600852 311.973034,276.996593 315.039924,281.782715 C318.107537,286.569559 324.475508,287.964578 329.264858,284.899293 L534.527471,153.521878 L534.507232,153.491536 C534.714679,153.368722 534.927186,153.265414 535.131741,153.135376 C544.81019,146.939787 547.632046,134.075414 541.433214,124.401308 C535.235103,114.727202 522.364719,111.906821 512.684825,118.102411" id="Fill-1" fill="#F7F7F7"></path>
                <path d="M2.24635411,266.147304 C6.48130769,272.756848 15.2764801,274.6843 21.8902069,270.451563 C28.5032109,266.218825 30.4316724,257.428255 26.1967188,250.817989 C21.9610424,244.208445 13.16587,242.280992 6.55286605,246.51373 C-0.060137931,250.74719 -1.98787666,259.53776 2.24635411,266.147304" id="Fill-3" fill="#F7F7F7"></path>
                <path d="M80.7935756,247.881152 C80.6547958,247.970011 80.5297493,248.073319 80.3938607,248.166513 L80.3808501,248.14484 L61.3860822,260.302673 L61.3998156,260.323624 C61.2588674,260.407426 61.1121366,260.478224 60.9733568,260.567084 C54.35963,264.799821 52.4318912,273.589669 56.6668448,280.199935 C60.9017984,286.810202 69.696248,288.736932 76.3099748,284.503471 C76.4494775,284.414612 76.5745239,284.312027 76.7104125,284.218833 L76.7227003,284.239783 L95.7174682,272.081951 L95.7044576,272.061722 C95.8454058,271.977198 95.990691,271.907122 96.1309164,271.818262 C102.74392,267.584802 104.671659,258.794954 100.436706,252.184688 C96.201752,245.575144 87.4065796,243.648414 80.7935756,247.881152" id="Fill-5" fill="#F7F7F7"></path>
                <path d="M467.80487,9.4858403 C473.93865,19.0588061 471.146428,31.7895285 461.568451,37.9200989 C451.990473,44.0506692 439.253086,41.2591863 433.120029,31.6862205 C426.985527,22.1132548 429.778471,9.38253232 439.356448,3.25268441 C448.935149,-2.87788593 461.671813,-0.0871254753 467.80487,9.4858403" id="Fill-7" fill="#F7F7F7"></path>
                <path d="M146.173409,155.729635 C157.027149,155.218875 165.37707,145.874198 165.37707,135.013856 L165.37707,116.67416 L134.612036,116.67416 C129.313104,116.67416 125.017434,120.967582 125.017434,126.263741 L125.017434,135.583133 C125.017434,147.045985 134.58457,156.275072 146.173409,155.729635" id="Fill-9" fill="#E8E1DD"></path>
                <path d="M145.197903,146.928445 L145.197903,137.609053 C145.197903,132.312894 149.492849,128.019471 154.791059,128.019471 L165.377359,128.019471 L165.377359,116.674376 L134.611603,116.674376 C129.31267,116.674376 125.017723,120.967076 125.017723,126.263236 L125.017723,135.58335 C125.017723,147.046202 134.584136,156.275289 146.173698,155.729852 C146.517757,155.713236 146.852418,155.662665 147.19214,155.629433 C145.926497,152.991829 145.197903,150.048635 145.197903,146.928445" id="Fill-11" fill="#EDE7E2"></path>
                <path d="M185.557466,53.645308 C174.412432,53.645308 165.377286,62.6757262 165.377286,73.8142053 L165.377286,135.582989 C165.377286,146.72219 156.342863,155.752608 145.19783,155.752608 L205.737645,155.752608 L205.737645,135.582989 L205.737645,73.8142053 C205.737645,62.6757262 196.702499,53.645308 185.557466,53.645308" id="Fill-13" fill="#DDD5D0"></path>
                <path d="M180.512601,139.365144 L180.512601,77.5963612 C180.512601,67.4989087 187.943828,59.1598593 197.633842,57.6832053 C194.264094,55.1583004 190.092747,53.6455247 185.557104,53.6455247 C174.412794,53.6455247 165.377648,62.6752205 165.377648,73.8144221 L165.377648,135.583205 C165.377648,146.722407 156.343225,155.752825 145.198192,155.752825 L172.065824,155.752825 C177.173212,152.092977 180.512601,146.124954 180.512601,139.365144" id="Fill-15" fill="#D8D0CA"></path>
                <path d="M343.213027,254.078259 L343.213027,73.8144943 C343.213027,62.6752928 334.178604,53.645597 323.033571,53.645597 L185.557682,53.645597 C196.702716,53.645597 205.737861,62.6752928 205.737861,73.8144943 L205.737861,254.078259 C205.737861,265.21746 214.772284,274.247878 225.917318,274.247878 L363.393206,274.247878 C352.248173,274.247878 343.213027,265.21746 343.213027,254.078259" id="Fill-17" fill="#EDE7E2"></path>
                <path d="M249.41831,264.16343 C245.997243,264.16343 242.782176,265.635027 240.405572,268.09419 C236.741639,271.886243 231.608954,274.247878 225.916812,274.247878 L363.393423,274.247878 C368.325167,274.247878 372.836235,272.475027 376.337534,269.535445 C378.511029,267.709856 377.227316,264.16343 374.388834,264.16343 L249.41831,264.16343 Z" id="Fill-19" fill="#DDD5D0"></path>
                <path d="M278.946324,108.270525 L259.914692,108.270525 C259.248983,108.270525 258.709765,107.731589 258.709765,107.066228 L258.709765,105.273148 C258.709765,104.607787 259.248983,104.068852 259.914692,104.068852 L278.946324,104.068852 C279.612033,104.068852 280.151251,104.607787 280.151251,105.273148 L280.151251,107.066228 C280.151251,107.731589 279.612033,108.270525 278.946324,108.270525" id="Fill-21" fill="#D0C6C0"></path>
                <path d="M254.982659,108.270525 L252.347288,108.270525 C251.681578,108.270525 251.142361,107.731589 251.142361,107.066228 L251.142361,105.273148 C251.142361,104.607787 251.681578,104.068852 252.347288,104.068852 L254.982659,104.068852 C255.647646,104.068852 256.187586,104.607787 256.187586,105.273148 L256.187586,107.066228 C256.187586,107.731589 255.647646,108.270525 254.982659,108.270525" id="Fill-23" fill="#D0C6C0"></path>
                <path d="M299.12643,108.270525 L283.877995,108.270525 C283.212286,108.270525 282.673068,107.731589 282.673068,107.066228 L282.673068,105.273148 C282.673068,104.607787 283.212286,104.068852 283.877995,104.068852 L299.12643,104.068852 C299.791417,104.068852 300.330635,104.607787 300.330635,105.273148 L300.330635,107.066228 C300.330635,107.731589 299.791417,108.270525 299.12643,108.270525" id="Fill-25" fill="#D0C6C0"></path>
                <path d="M328.586644,67.0918175 L315.133673,67.0918175 C313.972838,67.0918175 313.031014,66.1512091 313.031014,64.990981 C313.031014,63.8307529 313.972838,62.8901445 315.133673,62.8901445 L328.586644,62.8901445 C329.747479,62.8901445 330.68858,63.8307529 330.68858,64.990981 C330.68858,66.1512091 329.747479,67.0918175 328.586644,67.0918175" id="Fill-27" fill="#F7F3F0"></path>
                <path d="M268.856595,116.674449 L252.346854,116.674449 C251.681145,116.674449 251.141927,116.135513 251.141927,115.470152 L251.141927,113.67635 C251.141927,113.011711 251.681145,112.472776 252.346854,112.472776 L268.856595,112.472776 C269.521582,112.472776 270.0608,113.011711 270.0608,113.67635 L270.0608,115.470152 C270.0608,116.135513 269.521582,116.674449 268.856595,116.674449" id="Fill-29" fill="#D0C6C0"></path>
                <path d="M299.12643,116.674449 L273.788267,116.674449 C273.122558,116.674449 272.58334,116.135513 272.58334,115.470152 L272.58334,113.67635 C272.58334,113.011711 273.122558,112.472776 273.788267,112.472776 L299.12643,112.472776 C299.791417,112.472776 300.330635,113.011711 300.330635,113.67635 L300.330635,115.470152 C300.330635,116.135513 299.791417,116.674449 299.12643,116.674449" id="Fill-31" fill="#D0C6C0"></path>
                <path d="M278.946324,221.723281 L259.914692,221.723281 C259.248983,221.723281 258.709765,221.184346 258.709765,220.518985 L258.709765,218.725905 C258.709765,218.060544 259.248983,217.521608 259.914692,217.521608 L278.946324,217.521608 C279.612033,217.521608 280.151251,218.060544 280.151251,218.725905 L280.151251,220.518985 C280.151251,221.184346 279.612033,221.723281 278.946324,221.723281" id="Fill-33" fill="#D0C6C0"></path>
                <path d="M254.982659,221.723281 L252.347288,221.723281 C251.681578,221.723281 251.142361,221.184346 251.142361,220.518985 L251.142361,218.725905 C251.142361,218.060544 251.681578,217.521608 252.347288,217.521608 L254.982659,217.521608 C255.647646,217.521608 256.187586,218.060544 256.187586,218.725905 L256.187586,220.518985 C256.187586,221.184346 255.647646,221.723281 254.982659,221.723281" id="Fill-35" fill="#D0C6C0"></path>
                <path d="M299.12643,221.723281 L283.877995,221.723281 C283.212286,221.723281 282.673068,221.184346 282.673068,220.518985 L282.673068,218.725905 C282.673068,218.060544 283.212286,217.521608 283.877995,217.521608 L299.12643,217.521608 C299.791417,217.521608 300.330635,218.060544 300.330635,218.725905 L300.330635,220.518985 C300.330635,221.184346 299.791417,221.723281 299.12643,221.723281" id="Fill-37" fill="#D0C6C0"></path>
                <path d="M268.856595,230.127205 L252.346854,230.127205 C251.681145,230.127205 251.141927,229.58827 251.141927,228.922909 L251.141927,227.129829 C251.141927,226.464468 251.681145,225.925532 252.346854,225.925532 L268.856595,225.925532 C269.521582,225.925532 270.0608,226.464468 270.0608,227.129829 L270.0608,228.922909 C270.0608,229.58827 269.521582,230.127205 268.856595,230.127205" id="Fill-39" fill="#D0C6C0"></path>
                <path d="M299.12643,230.127205 L273.788267,230.127205 C273.122558,230.127205 272.58334,229.58827 272.58334,228.922909 L272.58334,227.129829 C272.58334,226.464468 273.122558,225.925532 273.788267,225.925532 L299.12643,225.925532 C299.791417,225.925532 300.330635,226.464468 300.330635,227.129829 L300.330635,228.922909 C300.330635,229.58827 299.791417,230.127205 299.12643,230.127205" id="Fill-41" fill="#D0C6C0"></path>
                <path d="M321.772192,167.098065 C321.772192,191.465023 302.008353,211.218521 277.628638,211.218521 C253.2482,211.218521 233.484361,191.465023 233.484361,167.098065 C233.484361,142.731106 253.2482,122.977608 277.628638,122.977608 C302.008353,122.977608 321.772192,142.731106 321.772192,167.098065" id="Fill-43" fill="#E2E2E2"></path>
                <path d="M309.159707,167.098065 C309.159707,184.502932 295.043195,198.612779 277.628493,198.612779 C260.214515,198.612779 246.09728,184.502932 246.09728,167.098065 C246.09728,149.693198 260.214515,135.58335 277.628493,135.58335 C295.043195,135.58335 309.159707,149.693198 309.159707,167.098065" id="Fill-45" fill="#D3D3D3"></path>
                <path d="M280.485117,144.198152 L280.48584,144.198152 C282.136742,141.226061 286.666603,142.439027 286.610223,145.838798 C286.567578,148.400548 289.359076,150.011574 291.558592,148.693856 C294.475137,146.945567 297.791397,150.259369 296.042193,153.17511 L296.04147,153.17511 C294.723062,155.372753 296.335655,158.163513 298.899468,158.12089 C302.300296,158.06454 303.513174,162.591308 300.54025,164.242791 C298.298811,165.486821 298.298811,168.708875 300.54025,169.953627 C303.513174,171.604388 302.300296,176.131156 298.899468,176.074806 C296.335655,176.032183 294.723062,178.822221 296.04147,181.020586 L296.042193,181.020586 C297.791397,183.936327 294.475137,187.250129 291.558592,185.50184 C289.359076,184.184122 286.567578,185.795148 286.610223,188.356897 C286.666603,191.756669 282.136742,192.968913 280.48584,189.997544 L280.485117,189.997544 C279.240436,187.757278 276.016696,187.757278 274.772014,189.997544 C273.120389,192.968913 268.590529,191.756669 268.646908,188.356897 C268.689554,185.795148 265.897332,184.184122 263.697816,185.50184 C260.781271,187.250129 257.465734,183.936327 259.214938,181.020586 C260.533347,178.822221 258.921477,176.032183 256.357664,176.074806 C252.956835,176.131156 251.743234,171.604388 254.716881,169.953627 C256.95832,168.708875 256.95832,165.486821 254.716881,164.242791 C251.743234,162.591308 252.956835,158.06454 256.357664,158.12089 C258.921477,158.163513 260.533347,155.372753 259.214938,153.17511 L259.214938,153.17511 C257.465734,150.259369 260.781271,146.945567 263.697816,148.693856 C265.897332,150.011574 268.689554,148.400548 268.646908,145.838798 C268.590529,142.439027 273.120389,141.226061 274.772014,144.198152 C276.016696,146.438418 279.240436,146.438418 280.485117,144.198152" id="Fill-47" fill="#E2E2E2"></path>
                <path d="M295.310491,179.774821 L290.732202,184.349992 L246.266273,139.908053 C244.818481,138.460297 244.818481,136.111665 246.266273,134.663909 L248.221479,132.710449 L295.310491,179.774821 Z" id="Fill-49" fill="#F8FCFF"></path>
                <path d="M248.413168,132.902399 L248.220901,132.710232 C245.692505,135.237304 245.692505,139.334224 248.220901,141.861297 L290.732346,184.349776 L292.039912,183.042894 L249.52919,140.554414 C247.456166,138.481753 247.086086,135.355061 248.413168,132.902399" id="Fill-51" fill="#F8FCFF"></path>
                <path d="M290.732202,184.350065 L295.310491,179.774894 L309.040298,193.497517 C309.765279,194.222118 309.765279,195.396072 309.040298,196.119951 L307.086538,198.073411 C306.361558,198.797289 305.186989,198.797289 304.462732,198.073411 L290.732202,184.350065 Z" id="Fill-53" fill="#776B6C"></path>
                <polygon id="Fill-55" fill="#D9ECF9" points="294.002491 178.466856 290.732491 181.735144 292.040057 183.042749 295.31078 179.775183"></polygon>
                <polygon id="Fill-57" fill="#F3FBFF" points="290.732202 181.735433 289.423912 183.043038 290.732202 184.34992 292.040491 183.043038"></polygon>
                <polygon id="Fill-59" fill="#685F60" points="288.116274 186.964624 297.926274 177.159757 299.234563 178.466639 289.424563 188.272228"></polygon>
                <path d="M260.02615,179.774821 L264.604439,184.349992 L309.070367,139.908053 C310.518159,138.460297 310.518159,136.111665 309.070367,134.663909 L307.115162,132.710449 L260.02615,179.774821 Z" id="Fill-61" fill="#F8FCFF"></path>
                <path d="M306.923472,132.902399 L307.11574,132.710232 C309.644135,135.237304 309.644135,139.334224 307.11574,141.861297 L264.604294,184.349776 L263.296728,183.042894 L305.807451,140.554414 C307.880475,138.481753 308.250554,135.355061 306.923472,132.902399" id="Fill-63" fill="#F8FCFF"></path>
                <path d="M264.604439,184.350065 L260.02615,179.774894 L246.296342,193.497517 C245.571362,194.222118 245.571362,195.396072 246.296342,196.119951 L248.250102,198.073411 C248.975082,198.797289 250.149651,198.797289 250.873908,198.073411 L264.604439,184.350065 Z" id="Fill-65" fill="#776B6C"></path>
                <polygon id="Fill-67" fill="#D9ECF9" points="261.33415 178.466856 264.60415 181.735144 263.296584 183.042749 260.025861 179.775183"></polygon>
                <polygon id="Fill-69" fill="#F3FBFF" points="264.604439 181.735433 265.912728 183.043038 264.604439 184.34992 263.29615 183.043038"></polygon>
                <polygon id="Fill-71" fill="#685F60" points="267.220367 186.964624 257.410367 177.159757 256.102078 178.466639 265.912078 188.272228"></polygon>
            </g>
        </g>
    </g>
</svg>