<?xml version="1.0" encoding="UTF-8"?>
<svg width="32px" height="109px" viewBox="0 0 32 109" version="1.1" xmlns="http://www.w3.org/2000/svg" xmlns:xlink="http://www.w3.org/1999/xlink">
    <!-- Generator: Sketch 49.1 (51147) - http://www.bohemiancoding.com/sketch -->
    <title>}@3x</title>
    <desc>Created with Sketch.</desc>
    <defs></defs>
    <g id="Page-1" stroke="none" stroke-width="1" fill="none" fill-rule="evenodd">
        <g id="404" transform="translate(-1225.000000, -283.000000)" fill="#E9E9E9">
            <path d="M1225.31,298.38 L1225.31,283.4 L1246.73,283.4 C1247.19667,283.4 1247.85,283.656664 1248.69,284.17 C1249.53,284.683336 1249.95,285.826658 1249.95,287.6 L1249.95,320.78 C1249.95,321.806672 1250.13666,322.833328 1250.51,323.86 C1250.88334,324.886672 1251.37333,325.866662 1251.98,326.8 C1252.58667,327.733338 1253.31,328.479997 1254.15,329.04 C1254.99,329.600003 1255.92333,329.88 1256.95,329.88 L1256.95,343.04 C1255.08332,343.413335 1253.45001,344.463325 1252.05,346.19 C1250.64999,347.916675 1249.95,349.993321 1249.95,352.42 L1249.95,387.14 C1249.95,388.820008 1249.55334,389.939997 1248.76,390.5 C1247.96666,391.060003 1247.29,391.34 1246.73,391.34 L1225.31,391.34 L1225.31,376.36 L1233.01,376.36 L1233.01,346.26 C1233.01,344.393324 1233.45333,342.643342 1234.34,341.01 C1235.22667,339.376658 1236.41666,337.906673 1237.91,336.6 C1236.41666,335.293327 1235.22667,333.823341 1234.34,332.19 C1233.45333,330.556659 1233.01,328.806676 1233.01,326.94 L1233.01,298.38 L1225.31,298.38 Z" id="}"></path>
        </g>
    </g>
</svg>