<?xml version="1.0" encoding="UTF-8"?>
<svg width="32px" height="109px" viewBox="0 0 32 109" version="1.1" xmlns="http://www.w3.org/2000/svg" xmlns:xlink="http://www.w3.org/1999/xlink">
    <!-- Generator: Sketch 49.1 (51147) - http://www.bohemiancoding.com/sketch -->
    <title>{</title>
    <desc>Created with Sketch.</desc>
    <defs></defs>
    <g id="Page-1" stroke="none" stroke-width="1" fill="none" fill-rule="evenodd">
        <g id="404" transform="translate(-217.000000, -283.000000)" fill="#E9E9E9">
            <path d="M240.99,298.38 L240.99,326.94 C240.99,328.806676 240.570004,330.556659 239.73,332.19 C238.889996,333.823341 237.723341,335.293327 236.23,336.6 C237.630007,337.906673 238.773329,339.376658 239.66,341.01 C240.546671,342.643342 240.99,344.393324 240.99,346.26 L240.99,376.36 L248.69,376.36 L248.69,391.34 L227.41,391.34 C226.756663,391.34 226.05667,391.060003 225.31,390.5 C224.56333,389.939997 224.19,388.820008 224.19,387.14 L224.19,352.42 C224.19,349.993321 223.490007,347.916675 222.09,346.19 C220.689993,344.463325 219.056676,343.413335 217.19,343.04 L217.19,329.88 C218.123338,329.88 219.033329,329.600003 219.92,329.04 C220.806671,328.479997 221.55333,327.733338 222.16,326.8 C222.76667,325.866662 223.256665,324.886672 223.63,323.86 C224.003335,322.833328 224.19,321.806672 224.19,320.78 L224.19,287.6 C224.19,285.826658 224.586663,284.683336 225.38,284.17 C226.173337,283.656664 226.849997,283.4 227.41,283.4 L248.69,283.4 L248.69,298.38 L240.99,298.38 Z" id="{"></path>
        </g>
    </g>
</svg>